<svg width="33" height="33" xmlns="http://www.w3.org/2000/svg" xmlns:xlink="http://www.w3.org/1999/xlink"><defs><path id="a" d="M0 0h18v18H0z"/></defs><g fill="none" fill-rule="evenodd"><rect fill-opacity=".096" fill="#FFC760" width="33" height="33" rx="4"/><g transform="translate(7.5 7.5)"><mask id="b" fill="#fff"><use xlink:href="#a"/></mask><path d="M15.55 4.51h-2.045V2.464a1.33 1.33 0 0 0-1.329-1.33H2.45a1.33 1.33 0 0 0-1.329 1.33v9.697a1.33 1.33 0 0 0 1.33 1.33h2.045v2.045a1.33 1.33 0 0 0 1.33 1.33h9.724a1.33 1.33 0 0 0 1.329-1.33V5.84a1.329 1.329 0 0 0-1.33-1.33ZM4.496 12.367H2.45a.204.204 0 0 1-.204-.204v-9.7c0-.112.092-.203.204-.203h9.725c.112 0 .204.091.204.204v9.697a.204.204 0 0 1-.204.204H4.496v.002Zm11.26 3.17a.204.204 0 0 1-.205.203H5.825a.204.204 0 0 1-.204-.204v-2.044h6.554a1.33 1.33 0 0 0 1.329-1.329V5.635h2.046c.112 0 .204.091.204.204v9.697h.001ZM9.25 6.906a.554.554 0 0 0 0-1.107H8.028L9.49 4.28a.558.558 0 0 0-.01-.784.557.557 0 0 0-.784.01l-1.401 1.46-1.41-1.46a.557.557 0 0 0-.784-.01.557.557 0 0 0-.01.784L6.55 5.798H5.335a.554.554 0 0 0 0 1.108h1.4v.979h-1.4a.554.554 0 0 0 0 1.107h1.4v1.774a.554.554 0 0 0 1.107 0V8.994h1.41a.554.554 0 0 0 0-1.108h-1.41v-.979h1.41Z" fill="#FFC760" fill-rule="nonzero" mask="url(#b)"/></g></g></svg>