<svg width="20" height="20" xmlns="http://www.w3.org/2000/svg"><path d="M15.25 16.938a.562.562 0 1 1 0 1.125H4.75a.562.562 0 1 1 0-1.125h10.5Zm1.5-15.188a1.5 1.5 0 0 1 1.5 1.5v10.5a1.5 1.5 0 0 1-1.5 1.5H3.25a1.5 1.5 0 0 1-1.5-1.5V3.25a1.5 1.5 0 0 1 1.5-1.5h13.5Zm0 1.125H3.25a.375.375 0 0 0-.375.375v10.5c0 .207.168.375.375.375h13.5a.375.375 0 0 0 .375-.375V3.25a.375.375 0 0 0-.375-.375Zm-7.125 8.062a.563.563 0 0 1 .102 1.116l-.102.01h-4.5a.563.563 0 0 1-.1-1.117l.1-.009h4.5Zm-4.875-3h6.75a.563.563 0 0 1 .1 1.117l-.1.009H4.75a.563.563 0 0 1-.102-1.116l.102-.01h6.75-6.75Zm3.375-2.625a.563.563 0 0 1 .1 1.116l-.1.01h-3a.563.563 0 0 1-.1-1.117l.1-.009h3Z"/></svg>