<svg width="33" height="33" xmlns="http://www.w3.org/2000/svg"><g fill="#4D7CFE" fill-rule="evenodd"><path d="M24.092 25H9.908c-.865 0-1.566-.7-1.566-1.565V8.565C8.342 7.701 9.043 7 9.908 7h14.184c.865 0 1.566.7 1.566 1.565v14.87c0 .864-.701 1.565-1.566 1.565Zm0-16.435H9.908v14.87h14.184V8.565Zm-11.837 2.348a.783.783 0 1 1 0 1.565.783.783 0 0 1 0-1.565Zm0 3.913a.783.783 0 1 1 0 1.565.783.783 0 0 1 0-1.565Zm0 3.913a.783.783 0 1 1 0 1.565.783.783 0 0 1 0-1.565Zm3.155-7.826h6.31a.783.783 0 0 1 0 1.565h-6.31a.783.783 0 0 1 0-1.565Zm0 3.913h6.31a.783.783 0 0 1 0 1.565h-6.31a.783.783 0 0 1 0-1.565Zm0 3.913h6.285a.783.783 0 0 1 0 1.565H15.41a.783.783 0 0 1 0-1.565Z" fill-rule="nonzero"/><rect fill-opacity=".1" width="33" height="33" rx="4"/></g></svg>