<svg width="20" height="20" xmlns="http://www.w3.org/2000/svg"><path d="M17.313 10a1.682 1.682 0 0 0-.567.105L14.19 6.27c.202-.314.31-.679.31-1.052a1.969 1.969 0 1 0-3.937 0c0 .497.19.946.495 1.293l-2.576 4.722a2.76 2.76 0 0 0-.732-.109 2.79 2.79 0 0 0-1.516.451L4.17 9.101c.126-.236.204-.502.204-.789a1.688 1.688 0 1 0-1.03 1.555l2.077 2.494a2.8 2.8 0 0 0-.484 1.576A2.816 2.816 0 0 0 7.75 16.75a2.816 2.816 0 0 0 2.813-2.813c0-.892-.426-1.68-1.077-2.195l2.527-4.632c.166.045.338.077.518.077.287 0 .557-.064.802-.173l2.538 3.807c-.16.261-.245.56-.246.867A1.688 1.688 0 1 0 17.313 10ZM7.75 15.625a1.69 1.69 0 0 1-1.687-1.688c0-.93.757-1.687 1.687-1.687s1.688.757 1.688 1.688a1.69 1.69 0 0 1-1.688 1.687Z"/></svg>