<svg class="icon" viewBox="0 0 1024 1024" xmlns="http://www.w3.org/2000/svg" width="14" height="200"><path d="M818.3 442a4 4 0 0 1-2.8-3.5C806.5 297.7 689 186 545.9 186c-113.2 0-214.5 72.1-253.3 175.8a4.1 4.1 0 0 1-3.6 2.6C163.9 370.8 64 474.5 64 601c0 130.7 106.4 237 237.3 237h455.8C869 838 960 747.1 960 635.3A202.5 202.5 0 0 0 818.3 442zM632.6 576.3H552a4 4 0 0 0-4 4v183.3a4 4 0 0 1-4 4h-64a4 4 0 0 1-4-4V580.3a4 4 0 0 0-4-4h-80.6a4 4 0 0 1-3.3-6.2l120.6-184.3a3.9 3.9 0 0 1 6.6 0l120.6 184.3a4 4 0 0 1-3.3 6.2z"/></svg>