<svg class="icon" viewBox="0 0 1024 1024" xmlns="http://www.w3.org/2000/svg" width="128" height="128"><path d="M682.66 42.66h170.66q53.002 0 90.5 37.499t37.5 90.5v682.66q0 53.003-37.5 90.502t-90.5 37.499H682.66q-53.002 0-90.501-37.5t-37.5-90.5V170.66q0-53.002 37.5-90.501t90.5-37.5zm-512 512h170.66q53.002 0 90.5 37.499t37.5 90.5v170.66q0 53.003-37.5 90.502t-90.5 37.499H170.66q-53.002 0-90.501-37.5t-37.5-90.5V682.66q0-53.002 37.5-90.501t90.5-37.5zM341.34 640H170.68q-17.674 0-30.167 12.493T128.02 682.66v170.66q0 17.674 12.493 30.167t30.167 12.493h170.66q17.674 0 30.167-12.493T384 853.32V682.66q0-17.674-12.493-30.167T341.34 640zM170.66 42.66h170.66q53.002 0 90.5 37.499t37.5 90.5v170.66q0 53.003-37.5 90.502t-90.5 37.499H170.66q-53.002 0-90.501-37.5t-37.5-90.5V170.66q0-53.002 37.5-90.501t90.5-37.5zM341.34 128H170.68q-17.674 0-30.167 12.493T128.02 170.66v170.66q0 17.674 12.493 30.167t30.167 12.493h170.66q17.674 0 30.167-12.493T384 341.32V170.66q0-17.674-12.493-30.167T341.34 128zm512 0H682.68q-17.674 0-30.167 12.493T640.02 170.66v682.66q0 17.674 12.493 30.167t30.167 12.493h170.66q17.674 0 30.167-12.493T896 853.32V170.66q0-17.674-12.493-30.167T853.34 128z"/></svg>