<svg width="20" height="20" xmlns="http://www.w3.org/2000/svg"><path d="M18.356 16.766H1.644a.63.63 0 0 0-.644.617c0 .34.288.617.644.617h16.712a.63.63 0 0 0 .644-.617.63.63 0 0 0-.644-.617ZM11.61 3.542v13.224H4.47V3.542c0-.17.145-.308.322-.308h6.496c.178 0 .322.138.322.308ZM11.287 2H4.791c-.888 0-1.609.69-1.609 1.542V18h9.714V3.542c0-.851-.72-1.542-1.609-1.542Zm4.264 6.766v8h-2.655V8.458h2.333c.177 0 .322.138.322.308Zm-.322-1.542h-3.62V18h5.229V8.766c0-.851-.72-1.542-1.609-1.542Zm-5.284-.838H6.134a.63.63 0 0 0-.644.616.63.63 0 0 0 .644.617h3.81a.63.63 0 0 0 .644-.617.63.63 0 0 0-.643-.616Zm0 2.804H6.134a.63.63 0 0 0-.644.617c0 .34.288.617.644.617h3.81a.63.63 0 0 0 .644-.617.63.63 0 0 0-.643-.617Zm0 2.805H6.134a.63.63 0 0 0-.644.617c0 .34.288.617.644.617h3.81a.63.63 0 0 0 .644-.617.63.63 0 0 0-.643-.617Z" fill="#FFF"/></svg>