<svg width="20" height="20" xmlns="http://www.w3.org/2000/svg"><path d="M15.178 3.219H5.123a2.952 2.952 0 0 0-2.949 2.948v7.686A2.952 2.952 0 0 0 5.123 16.8h10.055a2.952 2.952 0 0 0 2.949-2.949V6.167a2.936 2.936 0 0 0-2.949-2.948zM5.123 4.378h10.055c.62 0 1.194.325 1.512.857l-5.8 4.713a1.177 1.177 0 0 1-1.487 0l-5.8-4.713c.327-.527.9-.85 1.52-.857zm10.055 11.265H5.123a1.769 1.769 0 0 1-1.764-1.764V6.6l5.317 4.309c.421.34.946.526 1.487.529a2.336 2.336 0 0 0 1.487-.529L16.967 6.6v7.283a1.808 1.808 0 0 1-1.789 1.76z"/></svg>