<svg width="20" height="20" xmlns="http://www.w3.org/2000/svg"><path d="M4.507 2c-1.055.007-1.908.88-1.91 1.957v9.206c0 .355.282.643.63.643.347 0 .63-.288.63-.643V3.957c0-.371.294-.672.658-.672h11.172c.364 0 .66.3.66.672v13.086a.666.666 0 0 1-.66.672h-4.083a.636.636 0 0 0-.63.643c0 .354.283.642.63.642h4.075c1.058-.002 1.916-.877 1.918-1.957V3.957c-.002-1.08-.86-1.955-1.918-1.957H4.507Zm9.152 5.288c.348 0 .63-.287.63-.642a.636.636 0 0 0-.63-.642H6.524a.636.636 0 0 0-.63.642c0 .355.282.642.63.642h7.135Zm-1.679 3.26c.348 0 .63-.288.63-.643a.636.636 0 0 0-.63-.643H6.524a.636.636 0 0 0-.63.643c0 .355.282.642.63.642h5.456Zm-3.973 3.737a.621.621 0 0 0-.881.128.652.652 0 0 0 .042.823l.621.578h-4.29a.636.636 0 0 0-.63.642c0 .355.283.643.63.643h4.4l-.76.78a.652.652 0 0 0 0 .907c.118.12.278.188.444.188a.636.636 0 0 0 .445-.188l1.826-1.863a.652.652 0 0 0-.02-.929l-1.827-1.709Z" fill-rule="nonzero"/></svg>
