<svg class="icon" viewBox="0 0 1024 1024" xmlns="http://www.w3.org/2000/svg" width="128" height="128"><path d="M145.067 85.333h153.6c25.6 0 42.666-17.066 42.666-42.666S324.267 0 298.667 0H34.133C25.6 0 17.067 8.533 8.533 17.067 0 25.6 0 34.133 0 42.667v256c0 25.6 17.067 42.666 42.667 42.666s42.666-17.066 42.666-42.666v-153.6l230.4 230.4c17.067 17.066 42.667 17.066 59.734 0 17.066-17.067 17.066-42.667 0-59.734l-230.4-230.4zm170.666 563.2-153.6 153.6-76.8 76.8v-153.6c0-25.6-17.066-42.666-42.666-42.666S0 699.733 0 725.333v256c0 25.6 17.067 42.667 42.667 42.667h256c25.6 0 42.666-17.067 42.666-42.667s-17.066-42.666-42.666-42.666h-153.6l76.8-76.8 153.6-153.6c17.066-17.067 17.066-42.667 0-59.734-17.067-17.066-42.667-17.066-59.734 0zm665.6 34.134c-25.6 0-42.666 17.066-42.666 42.666v153.6l-76.8-76.8-153.6-153.6c-17.067-17.066-42.667-17.066-59.734 0-17.066 17.067-17.066 42.667 0 59.734l153.6 153.6 76.8 76.8h-153.6c-25.6 0-42.666 17.066-42.666 42.666S699.733 1024 725.333 1024h256c25.6 0 42.667-17.067 42.667-42.667v-256c0-25.6-17.067-42.666-42.667-42.666zm0-682.667h-256c-25.6 0-42.666 17.067-42.666 42.667s17.066 42.666 42.666 42.666h153.6l-76.8 76.8-153.6 153.6c-17.066 17.067-17.066 42.667 0 59.734 17.067 17.066 42.667 17.066 59.734 0l153.6-153.6 76.8-76.8v153.6c0 25.6 17.066 42.666 42.666 42.666S1024 324.267 1024 298.667v-256C1024 17.067 1006.933 0 981.333 0z"/></svg>