<svg width="20" height="20" xmlns="http://www.w3.org/2000/svg"><path d="M19.137 7.902 11.215 1.64c-.682-.541-1.75-.541-2.433 0L.863 7.902a.625.625 0 0 0-.104.877.62.62 0 0 0 .87.104l.246-.202v7.57c0 1.071 1.132 1.874 2.123 1.874h12.498c.98 0 1.626-.752 1.626-1.874V8.708l.228.175a.633.633 0 0 0 .887-.104.622.622 0 0 0-.1-.877Zm-9.764 8.974v-3.468c0-.171.313-.258.625-.258.313 0 .625.087.625.258v3.464l-1.25.004Zm7.503-.625c0 .413-.115.625-.377.625h-4.613c0-.01-.013-.017-.013-.027v-3.44c0-.726-.585-1.51-1.875-1.51s-1.874.784-1.874 1.51v3.44c0 .01.016.016.016.027H4.001c-.393 0-.873-.34-.873-.625V7.69l6.42-5.07c.232-.182.649-.182.877 0l6.447 5.1v8.53h.004Z" fill-rule="nonzero"/></svg>
