<svg class="icon" viewBox="0 0 1024 1024" xmlns="http://www.w3.org/2000/svg" width="200" height="200"><path d="M644.096 858.112H376.32c-20.992 0-38.4 11.264-38.4 24.576v4.608c0 13.824 16.896 24.576 38.4 24.576h267.776c20.992 0 38.4-11.264 38.4-24.576v-4.608c0-13.312-16.896-24.576-38.4-24.576zm-48.128-57.344h-55.296V262.144H768v-.512c3.584-1.024 6.144-4.096 6.144-8.192 0-4.608-3.584-8.192-8.192-8.192H555.008c4.096-4.096 6.656-9.728 6.656-15.872 0-12.288-9.728-22.016-22.016-22.016H481.28c-12.288 0-22.016 9.728-22.016 22.016 0 6.144 2.56 11.776 6.656 15.872H269.312c-4.608 0-8.192 3.584-8.192 8.192 0 4.608 3.584 8.192 8.192 8.192h212.992v539.136H422.4c-13.824 0-24.576 11.264-24.576 24.576v4.608c0 13.824 11.264 24.576 24.576 24.576h173.568c13.824 0 24.576-11.264 24.576-24.576v-4.608c.512-13.824-10.752-24.576-24.576-24.576z" fill="#fff"/><path d="M438.272 554.496v-2.048h-1.024l-171.52-294.4-172.032 294.4H92.16v2.048c2.048 91.648 78.848 164.864 173.056 164.864s171.008-73.216 173.056-164.864zm-173.056-268.8L418.304 547.84H111.616l153.6-262.144zm247.296-82.432c24.064 0 43.52-17.408 43.52-38.4 0-21.504-19.456-59.392-43.52-59.392s-43.52 38.4-43.52 59.392 19.456 38.4 43.52 38.4zM929.28 554.496v-2.048h-1.024l-171.52-294.4-172.032 294.4h-1.024v2.048c2.048 91.648 78.848 164.864 173.056 164.864 93.696 0 169.984-73.216 172.544-164.864zm-173.568-268.8L908.8 547.84H602.112l153.6-262.144z" fill="#4D7CFE"/></svg>