<svg width="33" height="33" xmlns="http://www.w3.org/2000/svg" xmlns:xlink="http://www.w3.org/1999/xlink"><defs><path id="a" d="M0 0h18v18H0z"/></defs><g fill="none" fill-rule="evenodd"><rect fill-opacity=".096" fill="#4AB8FF" width="33" height="33" rx="4"/><g transform="translate(7.5 7.5)"><mask id="b" fill="#fff"><use xlink:href="#a"/></mask><path d="M11.345 8.976c-.003.482-.012.768-.021 1.376a2.56 2.56 0 0 0-1.446 2.305 2.56 2.56 0 0 0 4.888 1.069.479.479 0 0 1 .128-.009h.31l.264.001.277.003h.384a3.84 3.84 0 1 1-4.783-4.746v.001Zm-8.587 3.099c.361.141.54.548.398.91a.382.382 0 0 0-.03.142c0 .642 1.744 1.573 4.475 1.782.189.015.87.15.82.784-.05.636-.728.63-.926.615-3.034-.231-5.772-1.314-5.772-3.18 0-.22.042-.441.126-.654a.702.702 0 0 1 .91-.4Zm9.68-3.258a3.84 3.84 0 0 1 3.84 3.84v.634l-.633.006a105 105 0 0 1-1.069.005l-2.775-.008-.006-2.322.01-2.155h.633Zm-9.68-.952c.361.141.54.548.398.91a.382.382 0 0 0-.03.142c0 .586 1.454 1.413 3.786 1.711.27.035.656.165.656.751 0 .587-.447.69-.773.65-2.744-.337-5.072-1.391-5.072-3.112 0-.22.042-.44.126-.655a.702.702 0 0 1 .91-.397Zm10.317 2.313.001 1.842 1.841.001-.01-.044a2.565 2.565 0 0 0-1.788-1.788l-.044-.01ZM1.723 4.683c0-4.238 14.034-4.238 14.034 0 0 2.12-3.53 3.227-7.017 3.227-3.488 0-7.018-1.109-7.018-3.227ZM8.74 2.859c-3.375 0-5.614 1.097-5.614 1.824 0 .725 2.24 1.824 5.614 1.824 3.374 0 5.614-1.099 5.614-1.824 0-.727-2.24-1.824-5.614-1.824Z" fill="#4ABBFF" fill-rule="nonzero" mask="url(#b)"/></g></g></svg>