<svg class="icon" viewBox="0 0 1024 1024" xmlns="http://www.w3.org/2000/svg" width="200" height="200"><path d="M452.7 662.1c-33.4 0-59.5-19.4-59.5-44.2 0-6.7 5.4-12.1 12.1-12.1 6.7 0 12.1 5.4 12.1 12.1 0 9.5 14.5 20.1 35.4 20.1s35.4-10.6 35.4-20.1c0-9.5-14.5-20.1-35.4-20.1-33.4 0-59.5-19.4-59.5-44.2 0-24.8 26.1-44.2 59.5-44.2s59.5 19.4 59.5 44.2c0 6.7-5.4 12.1-12.1 12.1s-12.1-5.4-12.1-12.1c0-9.5-14.5-20.1-35.4-20.1s-35.4 10.6-35.4 20.1c0 9.5 14.5 20.1 35.4 20.1 33.4 0 59.5 19.4 59.5 44.2 0 24.8-26.1 44.2-59.5 44.2z" fill="#b4bbc5"/><path d="M452.7 698.3c-6.7 0-12.1-5.4-12.1-12.1v-193c0-6.7 5.4-12.1 12.1-12.1s12.1 5.4 12.1 12.1v193c-.1 6.7-5.5 12.1-12.1 12.1zm314.4-264.7H553.5c-10 0-18.1-8.1-18.1-18.1 0-10 8.1-18.1 18.1-18.1h202.9l86.8-156.8H267.6l-86.8 156.8h171c10 0 18.1 8.1 18.1 18.1 0 10-8.1 18.1-18.1 18.1H150.1c-6.4 0-12.3-3.4-15.6-8.9-3.3-5.5-3.3-12.3-.2-17.9l106.8-193c3.2-5.8 9.2-9.3 15.8-9.3h617c6.4 0 12.3 3.4 15.6 8.9 3.3 5.5 3.3 12.3.2 17.9l-106.8 193c-3.1 5.7-9.2 9.3-15.8 9.3z" fill="#b4bbc5"/><path d="M767.1 433.6H553.5c-10 0-18.1-8.1-18.1-18.1 0-10 8.1-18.1 18.1-18.1h213.6c10 0 18.1 8.1 18.1 18.1 0 10-8.1 18.1-18.1 18.1zm0 386h-617c-10 0-18.1-8.1-18.1-18.1v-386c0-10 8.1-18.1 18.1-18.1h201.7c10 0 18.1 8.1 18.1 18.1 0 10-8.1 18.1-18.1 18.1H168.2v349.8h598.9c10 0 18.1 8.1 18.1 18.1 0 10-8.1 18.1-18.1 18.1zm0-289.5H553.5c-10 0-18.1-8.1-18.1-18.1s8.1-18.1 18.1-18.1h213.6c10 0 18.1 8.1 18.1 18.1s-8.1 18.1-18.1 18.1z" fill="#b4bbc5"/><path d="M351.8 530.1H150.1c-10 0-18.1-8.1-18.1-18.1s8.1-18.1 18.1-18.1h201.7c10 0 18.1 8.1 18.1 18.1s-8.1 18.1-18.1 18.1zm415.3 96.5H553.5c-10 0-18.1-8.1-18.1-18.1s8.1-18.1 18.1-18.1h213.6c10 0 18.1 8.1 18.1 18.1s-8.1 18.1-18.1 18.1zm-415.3 0H150.1c-10 0-18.1-8.1-18.1-18.1s8.1-18.1 18.1-18.1h201.7c10 0 18.1 8.1 18.1 18.1s-8.1 18.1-18.1 18.1zm415.3 96.5H553.5c-10 0-18.1-8.1-18.1-18.1 0-10 8.1-18.1 18.1-18.1h213.6c10 0 18.1 8.1 18.1 18.1 0 10-8.1 18.1-18.1 18.1zm-415.3 0H150.1c-10 0-18.1-8.1-18.1-18.1 0-10 8.1-18.1 18.1-18.1h201.7c10 0 18.1 8.1 18.1 18.1 0 10-8.1 18.1-18.1 18.1zm415.3-193c-3 0-6-.7-8.7-2.3-8.7-4.8-11.9-15.9-7.1-24.6l106.8-193c4.8-8.7 15.8-11.9 24.6-7.1 8.7 4.8 11.9 15.9 7.1 24.6L783 520.7c-3.4 6-9.5 9.4-15.9 9.4z" fill="#b4bbc5"/><path d="M767.1 626.6c-3 0-6-.7-8.7-2.3-8.7-4.8-11.9-15.9-7.1-24.6l106.8-193c4.8-8.7 15.8-11.9 24.6-7.1 8.7 4.8 11.9 15.9 7.1 24.6L783 617.2c-3.4 6-9.5 9.4-15.9 9.4zm0 96.5c-3 0-6-.7-8.7-2.3-8.7-4.8-11.9-15.9-7.1-24.6l106.8-193c4.8-8.7 15.8-11.9 24.6-7.1 8.7 4.8 11.9 15.9 7.1 24.6L783 713.7c-3.4 6-9.5 9.4-15.9 9.4zm0 96.5c-3 0-6-.7-8.7-2.3-8.7-4.8-11.9-15.9-7.1-24.6l106.8-193c4.8-8.7 15.8-11.9 24.6-7.1 8.7 4.8 11.9 15.9 7.1 24.6L783 810.2c-3.4 6-9.5 9.4-15.9 9.4z" fill="#b4bbc5"/><path d="M873.9 626.6c-10 0-18.1-8.1-18.1-18.1v-386c0-10 8.1-18.1 18.1-18.1 10 0 18.1 8.1 18.1 18.1v386c0 10-8.1 18.1-18.1 18.1zm-522.1-193c-3 0-6-.7-8.7-2.3-8.7-4.8-11.9-15.9-7.1-24.6l106.8-193c4.8-8.7 15.9-11.9 24.6-7.1 8.7 4.8 11.9 15.9 7.1 24.6l-106.8 193c-3.4 6-9.5 9.4-15.9 9.4zm201.7 0c-3 0-6-.7-8.7-2.3-8.7-4.8-11.9-15.9-7.1-24.6l106.8-193c4.8-8.7 15.8-11.9 24.6-7.1 8.7 4.8 11.9 15.9 7.1 24.6l-106.8 193c-3.3 6-9.5 9.4-15.9 9.4z" fill="#b4bbc5"/><path d="M351.8 819.6c-10 0-18.1-8.1-18.1-18.1v-386c0-10 8.1-18.1 18.1-18.1s18.1 8.1 18.1 18.1v386c0 10-8.1 18.1-18.1 18.1zm201.7 0c-10 0-18.1-8.1-18.1-18.1v-386c0-10 8.1-18.1 18.1-18.1 10 0 18.1 8.1 18.1 18.1v386c0 10-8.1 18.1-18.1 18.1z" fill="#b4bbc5"/></svg>