<svg width="33" height="33" xmlns="http://www.w3.org/2000/svg"><g fill="#11F3C8" fill-rule="evenodd"><rect fill-opacity=".1" width="33" height="33" rx="4"/><path d="M17 12.789a.595.595 0 0 0-.6.59v3.94c0 .027.014.05.017.076.006.044.01.084.025.123a.592.592 0 0 0 .052.096c.02.033.038.065.065.095.028.03.06.051.095.079.022.015.037.038.062.05l3.43 1.824a.6.6 0 0 0 .812-.24.587.587 0 0 0-.243-.8L17.6 16.963v-3.585a.597.597 0 0 0-.599-.59Zm7.987 3.15a.595.595 0 0 0-.598.592c0 4.019-3.314 7.286-7.388 7.286-4.075 0-7.389-3.267-7.389-7.286 0-4.02 3.314-7.287 7.389-7.287a7.499 7.499 0 0 1 2.58.47l-.787.209a.59.59 0 0 0 .155 1.16.604.604 0 0 0 .155-.019l1.926-.51a.99.99 0 0 0 .61-.459.965.965 0 0 0 .097-.747l-.516-1.902a.597.597 0 0 0-.733-.418.59.59 0 0 0-.424.723l.264.97A8.742 8.742 0 0 0 17 8.062c-4.735 0-8.587 3.8-8.587 8.47C8.413 21.2 12.265 25 17 25c4.734 0 8.587-3.8 8.587-8.468a.596.596 0 0 0-.6-.592Z" fill-rule="nonzero"/></g></svg>