<svg width="33" height="33" xmlns="http://www.w3.org/2000/svg"><g fill="#1EE0E6" fill-rule="evenodd"><rect fill-opacity=".1" width="33" height="33" rx="4"/><g fill-rule="nonzero"><path d="M23.498 22.885a6.818 6.818 0 0 0-4.953-5.85 3.568 3.568 0 0 0 1.747-3.077 3.58 3.58 0 0 0-3.516-3.558 3.568 3.568 0 0 0-1.873 6.636 6.818 6.818 0 0 0-4.953 5.849.649.649 0 1 0 1.29.138 5.514 5.514 0 0 1 10.968 0 .649.649 0 1 0 1.29-.138Zm-6.848-6.647a2.27 2.27 0 1 1 2.345-2.345 2.278 2.278 0 0 1-2.345 2.345Z"/><path d="M17.373 21.005h-1.297a.649.649 0 0 0 0 1.298h1.297a.649.649 0 1 0 0-1.298Z"/></g></g></svg>