<svg class="icon" viewBox="0 0 1024 1024" xmlns="http://www.w3.org/2000/svg" width="200" height="200"><path d="m1019.614 457.126-1.325 1.024-.964 1.265c-2.65 3.614-6.505 5.903-12.408 7.409l-3.072.843-2.229 2.048c.241-.24-.361-.24-.783-.24a28.31 28.31 0 0 1-26.022-20.601v-.723l-.24-1.024C942.513 221.365 745.062 51.2 512.976 51.2c-194.018 0-374.001 125.53-437.73 305.212l-12.107 34.273 44.935-29.816a32.407 32.407 0 0 1 13.975-3.554 25.901 25.901 0 0 1 21.383 11.505l.663.964a23.492 23.492 0 0 1 2.289 16.866 26.624 26.624 0 0 1-10.963 16.504l-94.389 63.609a32.527 32.527 0 0 1-13.914 3.493c-3.072 0-8.313-1.807-12.469-3.192l-1.807-.603C3.626 459.596-.89 449.898.916 440.862A503.868 503.868 0 0 1 171.08 127.097 521.216 521.216 0 0 1 512.976.001c127.156 0 248.29 45.176 341.052 127.156a502.663 502.663 0 0 1 170.104 313.103c0 5.903-.18 13.433-4.518 16.866zm-345.51 88.727c13.975 0 26.143 12.107 26.143 25.96a26.744 26.744 0 0 1-26.142 25.962H537.55v104.508a23.13 23.13 0 0 1-6.083 18.071 24.998 24.998 0 0 1-18.492 8.132 26.383 26.383 0 0 1-26.143-25.962V599.341h-135.83a26.744 26.744 0 0 1-26.142-25.961c0-13.794 12.228-25.961 26.142-25.961h136.613v-78.005H351.003a26.744 26.744 0 0 1-26.142-25.961c0-13.794 12.228-25.962 26.142-25.962h100.894l-89.269-87.763a24.937 24.937 0 0 1-7.228-17.769c0-6.807 2.59-13.131 7.228-17.77a31.322 31.322 0 0 1 17.89-8.191c5.602 0 13.493 1.927 17.288 7.348l.602.844 112.158 111.375L622.724 294.19a31.322 31.322 0 0 1 17.89-8.192c5.602 0 13.493 1.927 17.288 7.348l.542.723.602.663a25.54 25.54 0 0 1-.542 34.996l-85.173 86.197h100.774c13.974 0 26.142 12.107 26.142 25.961 0 13.855-12.168 25.962-26.142 25.962H537.55v78.005h136.554zM6.157 565.79l.904-1.204c5.601-7.229 11.264-10.843 16.865-10.843h4.036c11.927 0 23.793 9.758 26.082 21.384v.06c30.54 226.244 228.171 396.89 459.716 396.89a472.847 472.847 0 0 0 273.287-88.606c75.655-54.151 134.023-130.77 164.382-215.823l12.288-34.394-44.815 29.756a31.021 31.021 0 0 1-14.276 3.735 26.323 26.323 0 0 1-21.685-11.987c-8.252-11.927-3.433-28.31 6.084-35.6l94.027-61.68a31.322 31.322 0 0 1 14.156-3.735c3.072 0 7.95 1.627 12.288 3.133l2.108.662c9.096 6.686 13.673 16.444 11.866 25.48a504.23 504.23 0 0 1-170.225 313.886C760.482 978.884 639.41 1024 512.192 1024c-127.156 0-248.29-45.116-340.991-127.036A501.338 501.338 0 0 1 .193 583.74c0-7.168.482-13.733 4.758-17.046l1.205-.904z" fill="#4D7CFE"/></svg>