<svg class="icon" viewBox="0 0 1024 1024" xmlns="http://www.w3.org/2000/svg" width="200" height="200" fill="red"><path d="M512.56 102.407c47.62-.669 37.721 47.897 37.721 93.45 0 19.128 3.248 43.34-4.284 55.728-5.36 8.818-14.343 14.272-26.576 16.29-7.155 1.176-13.82-1.73-18.006-3.86-26.208-13.35-18.863-52.432-18.863-90.45 0-15.923-3.362-37.323 1.716-49.728 5.56-13.584 14.523-15.707 28.291-21.43zm-243.487 81.874c11.068-.06 18.672 2.904 24.864 7.717 15.86 19.43 31.725 38.866 47.58 58.3 7.928 10.179 19.727 19.656 24.864 32.15 7.209 17.517-3.359 34.621-14.144 41.15-11.38 6.892-28.972 4.883-38.582-2.142-11.418-8.35-20.445-23.964-29.148-35.149-8.714-10.719-17.436-21.435-26.15-32.15-12.063-15.509-31.688-33.656-12.857-57.874 5.938-7.64 13.555-8.011 23.573-12.002zm487.397 11.574c24.54-.441 48.008 18.367 37.296 45.01-5.192 12.912-17.522 21.125-25.72 31.293l-33.008 36.865c-5.84 7.248-12.364 16.677-20.149 21.861-8.722 5.812-25.806 7.682-36.009 1.716-13.315-7.788-23.726-28.84-12.862-46.725l32.58-36.439c8.573-9.57 17.147-19.148 25.72-28.718 5.61-6.966 11.588-15.356 19.29-20.15 4.29-1.569 8.578-3.14 12.863-4.713zm-35.148 600.996H301.654V604.378c0-38.791-2.514-81.677 6.43-111.885 16.764-56.62 49.239-96.005 95.166-123.457 20.068-11.993 42.698-20.45 69.445-26.15l26.576-2.568c8.144-.145 16.29-.29 24.433-.43 18.182 2.775 34.687 3.761 50.157 8.573 70.938 22.068 119.798 72.139 141.03 144.032 8.898 30.122 6.43 72.768 6.43 111.456l.001 192.902zM131.898 403.333c12.225-.266 21.037 2.537 30.865 4.714 18.863 3.714 37.725 7.432 56.588 11.146 14.218 3.33 29.3 3.518 38.151 12.001 9.097 8.718 15.535 27.236 6.858 41.58-4.723 7.807-12.944 14.02-23.148 16.29-10.661 2.373-21.81-1.833-30.435-3.859-18.862-3.714-37.725-7.428-56.587-11.146-14.508-3.397-29.939-3.859-39.864-11.571-13.846-10.759-15.93-38.883-1.287-50.584 5.643-4.51 11.362-5.37 18.86-8.57zm752.32 17.146c28.46-.3 47.728 29.59 30.008 53.585-9.648 13.057-26.438 12.604-45.868 16.287-19.148 2.857-38.296 5.719-57.443 8.577-8.543 1.646-19.739 5.098-29.578 2.998-11.143-2.373-20.72-9.496-24.86-18.863-8.35-18.875 2.506-38.476 16.287-44.578 7.963-3.527 18.13-3.238 27.865-5.149 19.004-2.998 38.01-6 57.014-8.999l26.575-3.858zM260.5 825.573h410.67c52.173-.004 97.803-9.359 118.312 24.86 3.85 6.426 8.01 16.92 6.001 28.722-8.854 52.06-64.07 41.584-123.027 41.58h-380.66c-14.605.004-32.366 1.591-43.297-2.574-23.457-8.928-42.999-40.21-25.29-69.444 5.056-8.343 13.7-15.833 23.148-19.718 4.714-1.143 9.429-2.285 14.143-3.426zm0 0"/></svg>