<svg class="icon" viewBox="0 0 1024 1024" xmlns="http://www.w3.org/2000/svg" width="200" height="200"><path d="M928 538.656H800V361.312l86.08-82.176a32 32 0 1 0-44.192-46.304L750.624 320H273.376l-91.296-87.136a31.968 31.968 0 1 0-44.16 46.272L224 361.344v177.344H96a32 32 0 0 0 0 64h128V640c0 52.96 14.304 102.592 39.232 145.216L137.92 904.864a32 32 0 1 0 44.192 46.304l119.712-114.272a287.104 287.104 0 0 0 178.208 89.344V544a32 32 0 0 1 64 0v382.24a287.424 287.424 0 0 0 178.208-89.344l119.712 114.272a32.032 32.032 0 0 0 44.192-46.304L760.8 785.216A287.04 287.04 0 0 0 800 640v-37.344h128a32 32 0 0 0 0-64z"/><path d="M672 240a160 160 0 0 0-320 0v21.344h320V240z"/></svg>