<svg class="icon" viewBox="0 0 1028 1024" xmlns="http://www.w3.org/2000/svg" width="128.5" height="128"><path d="M631.875 676.03v307.086a39.858 39.858 0 0 0 79.716 0V761.263l250.819 249.864a38.054 38.054 0 0 0 53.934-53.722l-250.82-249.864h222.81a39.681 39.681 0 1 0 0-79.398H680.078a43.713 43.713 0 0 0-48.204 47.887zm-280.138-46.72H43.483a39.717 39.717 0 1 0 0 79.398h222.809L15.438 958.431a38.054 38.054 0 1 0 53.934 53.721L320.19 762.288v221.854a39.858 39.858 0 0 0 79.716 0V677.055c-2.51-32.537-18.85-47.71-48.169-47.71zM677.568 394.62h308.254a39.717 39.717 0 1 0 0-79.398H763.014l250.819-249.864a38.054 38.054 0 0 0-53.934-53.721L709.257 261.712V39.858a39.858 39.858 0 0 0-79.716 0v307.087a44.774 44.774 0 0 0 48.063 47.71zm-280.173-46.684V40.848a39.858 39.858 0 0 0-79.716 0v221.854L66.861 12.838A38.054 38.054 0 0 0 12.927 66.56l250.819 249.864H40.937a39.717 39.717 0 1 0 0 79.397h308.254c31.865-1.167 48.204-16.34 48.204-47.886z"/></svg>