<svg width="20" height="20" xmlns="http://www.w3.org/2000/svg"><path d="M11.307 1.948a.701.701 0 0 1 .808-.384 8.44 8.44 0 0 1 4.02 2.39.742.742 0 0 1 .082.908c-.3.463-.32 1.058-.048 1.538.268.48.781.762 1.318.725a.707.707 0 0 1 .728.529 9.01 9.01 0 0 1 .32 2.39 8.896 8.896 0 0 1-.32 2.387.713.713 0 0 1-.728.529 1.39 1.39 0 0 0-1.318.726 1.484 1.484 0 0 0 .048 1.534.746.746 0 0 1-.082.91 8.439 8.439 0 0 1-4.022 2.39.704.704 0 0 1-.807-.384 1.402 1.402 0 0 0-2.541 0 .7.7 0 0 1-.808.382 8.43 8.43 0 0 1-4.022-2.39.742.742 0 0 1-.082-.908 1.478 1.478 0 0 0 .047-1.536 1.41 1.41 0 0 0-1.318-.726.71.71 0 0 1-.725-.53 9.006 9.006 0 0 1 .002-4.774.7.7 0 0 1 .725-.53c.54.038 1.05-.242 1.318-.724a1.483 1.483 0 0 0-.047-1.536.746.746 0 0 1 .082-.91 8.439 8.439 0 0 1 4.022-2.39.704.704 0 0 1 .807.384c.238.497.731.813 1.27.81a1.407 1.407 0 0 0 1.271-.81Zm.94 1.175a2.788 2.788 0 0 1-4.429 0 7.005 7.005 0 0 0-2.506 1.49 2.97 2.97 0 0 1-.187 2.518 2.808 2.808 0 0 1-2.028 1.424 7.553 7.553 0 0 0 0 2.977 2.815 2.815 0 0 1 2.028 1.426 2.97 2.97 0 0 1 .187 2.517 7.044 7.044 0 0 0 2.507 1.488 2.785 2.785 0 0 1 2.214-1.093c.862-.004 1.679.4 2.215 1.093a7.005 7.005 0 0 0 2.506-1.49 2.976 2.976 0 0 1 .189-2.517 2.815 2.815 0 0 1 2.028-1.426c.2-.983.2-1.996 0-2.975a2.808 2.808 0 0 1-2.028-1.424 2.963 2.963 0 0 1-.189-2.517 7.02 7.02 0 0 0-2.506-1.49Zm-2.211 3.419a3.504 3.504 0 0 1 3.5 3.5c0 1.93-1.57 3.5-3.5 3.5s-3.5-1.57-3.5-3.5 1.57-3.5 3.5-3.5Zm0 1.4c-1.158 0-2.1.942-2.1 2.1 0 1.156.942 2.099 2.1 2.099 1.158 0 2.1-.941 2.1-2.1a2.101 2.101 0 0 0-2.1-2.098Z" fill="#FFF"/></svg>