<svg class="icon" viewBox="0 0 1024 1024" xmlns="http://www.w3.org/2000/svg" width="200" height="200"><path d="M934.912 516.096q23.552 26.624 19.456 49.664t-26.624 46.592l-324.608 327.68q-8.192 7.168-19.456 11.264t-23.04 4.608-23.04-2.56-18.432-10.24q-121.856-122.88-218.112-220.16l-80.896-80.896q-39.936-39.936-71.168-71.68t-51.2-51.2T76.8 497.664q-3.072-4.096-10.752-14.848t-6.656-25.088v-60.416q0-23.552.512-52.736t.512-58.88q1.024-70.656 2.048-156.672 2.048-13.312 6.144-24.064t15.36-22.016q10.24-11.264 22.016-16.384T128 61.44h329.728q2.048 0 9.216.512t10.24 1.536q6.144 2.048 11.264 5.12t10.24 8.192zM217.088 317.44q40.96 0 69.12-28.672t28.16-69.632-28.16-69.632-69.12-28.672q-20.48 0-37.888 7.68t-30.72 20.992-20.992 31.232-7.68 38.4 7.68 38.4 20.992 31.232 30.72 20.992 37.888 7.68z"/></svg>